PathFileType	4	(X/Y/Z)	C:\Users\WrightLab\Desktop\Jo\P5V129.trc
DataRate	CameraRate	NumFrames	NumMarkers	Units	OrigDataRate	OrigDataStartFrame	OrigNumFrames
100.00	100.00	       9	19	mm	100.00	504	       671
Frame#	Time	Headset_Front			Headset_Back			Headset_Left			Headset_Right			Left_Shoulder			Right_Shoulder			Sternum			C7			Left Elbow			Right Elbow			Left Wrist			Right Wrist			Left ASIS			Right ASIS			S2			Left Knee			Right Knee			Left Ankle			Right Ankle			
		X1	Y1	Z1	X2	Y2	Z2	X3	Y3	Z3	X4	Y4	Z4	X5	Y5	Z5	X6	Y6	Z6	X7	Y7	Z7	X8	Y8	Z8	X9	Y9	Z9	X10	Y10	Z10	X11	Y11	Z11	X12	Y12	Z12	X13	Y13	Z13	X14	Y14	Z14	X15	Y15	Z15	X16	Y16	Z16	X17	Y17	Z17	X18	Y18	Z18	X19	Y19	Z19	

504	5.030	505.14795	1593.09949	-630.65350	497.48221	1747.77893	-451.90244							336.82819	1450.18311	-348.33450	374.67624	1515.49060	-630.30670	530.50275	1306.07190	-507.40616	570.51459	1513.69800	-308.20938	294.12796	1187.66553	-221.63226				251.45821	941.71735	-232.92039	783.60376	1033.18713	-585.72913	416.47632	907.86597	-447.47849	697.71057	944.84924	-486.87363	576.21033	968.06311	-194.41823	463.37155	481.58408	-425.98337	738.34473	488.08911	-286.03217	559.20001	84.23557	-477.91339	722.53662	173.67577	17.66335	
505	5.040	501.03799	1594.19690	-639.34259	493.86444	1747.91357	-459.50211							334.12207	1448.26550	-356.71350	371.45776	1515.11475	-637.48248	528.08862	1306.14404	-516.79553	568.98755	1513.07471	-317.09726	293.26788	1186.37708	-230.32909				249.50365	940.26733	-242.17075	781.24573	1032.88306	-595.24414	415.50375	906.06537	-456.93094	695.68774	945.47906	-498.27176	575.71136	966.65588	-205.21011	462.73822	480.74222	-436.34958	735.48706	487.03952	-297.79947	559.83209	84.81265	-478.10419	724.48810	178.85149	8.61999	
506	5.050	496.74539	1595.58362	-648.03381	490.23611	1748.29639	-467.32043							332.79379	1448.65015	-364.90115	367.76831	1515.60132	-645.41510	526.07031	1306.81042	-525.77191	565.97363	1513.32581	-325.48355	291.52252	1185.14038	-239.70615				247.70894	939.61188	-251.34871	778.73047	1033.13074	-605.13739	414.08237	906.40491	-468.24255	694.10217	946.03662	-508.53378	575.28589	966.00470	-215.97685	461.21936	481.75452	-447.07312	732.79169	486.10590	-310.03912	559.12427	85.57169	-479.05087	726.53278	184.55804	-0.89797	
507	5.060	492.63486	1596.81567	-656.26495	486.75781	1748.43787	-474.68744							331.12277	1448.66833	-372.75644	363.94971	1516.25684	-654.01971	523.91376	1307.63062	-534.07733	563.92065	1513.79285	-334.11032	291.11713	1184.73169	-248.78192				245.91624	938.97388	-261.66925	775.59534	1033.52124	-614.74188	412.87918	907.27734	-478.66309	692.03040	947.22809	-519.89587	573.46899	966.08832	-225.73088	457.43143	485.12097	-460.20337	729.45807	485.45602	-323.26453	558.13739	85.91415	-479.50714	728.36182	190.33994	-13.25131	
508	5.070	488.78647	1597.76660	-664.11017	483.23059	1749.24512	-482.42917							329.10596	1449.57971	-379.97348	360.82874	1516.14319	-660.44019	521.69586	1308.90845	-542.73981	561.05627	1514.54614	-341.91870	290.06210	1184.34875	-257.57172				244.19786	939.44183	-271.30917	772.83392	1034.27600	-623.94189	411.59207	908.19031	-488.83228				572.65790	966.35596	-235.62299	454.33850	486.83264	-470.83090	731.27667	485.37601	-337.04788	556.66357	85.89586	-480.44272	730.53052	196.91470	-26.74649	
509	5.080	485.40726	1598.10229	-671.50787	480.17178	1749.30676	-489.32938							326.97061	1450.92163	-386.54376				518.85443	1309.80750	-551.37750	560.07587	1514.85791	-350.42590	288.79453	1184.95361	-267.04010				242.65823	940.17371	-281.62537	769.56470	1035.16516	-633.20673	410.37851	909.51050	-498.05188				572.08435	966.96790	-245.18370	450.38159	489.48557	-482.24130	737.62799	485.56860	-353.67273	555.62738	85.92731	-480.68250	734.14478	204.21707	-42.42744	
510	5.090	482.36871	1598.23547	-678.22833	476.90353	1750.14673	-496.89740							324.83801	1452.65039	-394.10434	354.08356	1517.18372	-674.54675	516.27185	1310.75671	-559.88568	558.43622	1515.22839	-359.13718	288.44434	1185.03833	-276.39545				240.85539	940.83368	-291.91830	766.99451	1036.57263	-642.71307	408.43320	911.65503	-508.38788				570.77277	967.18188	-254.84756	447.10559	490.94220	-492.22675	742.72034	486.43158	-371.33612	555.15753	86.21859	-481.20932	737.46814	211.69856	-58.47318	
511	5.100	478.92532	1598.96704	-685.93982	474.24728	1750.16760	-503.58633							323.14896	1453.44666	-401.54620				513.66058	1311.30835	-568.07635	556.09601	1515.91162	-366.85828	287.75378	1186.11963	-284.89304				239.25426	942.29260	-302.55383	764.39331	1037.08289	-651.27032	406.51648	912.99023	-516.84485				569.46375	967.80273	-263.93954	443.13977	492.12241	-502.95255	745.43549	488.27191	-391.05423	554.95886	86.55402	-482.04306	739.88416	220.13478	-75.85397	
512	5.110	475.67770	1599.94360	-692.55756	471.63742	1750.67981	-509.65216							321.31433	1454.63025	-409.32010	347.75900	1518.02686	-688.13086	510.78650	1312.01013	-576.57733	555.17163	1516.39929	-374.84174	286.67679	1186.35693	-292.25455				236.72464	944.00012	-313.97308	760.85632	1038.36792	-660.72247	404.43152	914.67474	-525.25464				568.92004	968.54718	-273.34802	440.07040	492.66183	-511.31879	745.46124	489.41171	-413.63120	555.27045	86.66181	-482.38727	743.24750	228.54456	-94.00044	
